<?xml version="1.0" encoding="utf-8"?>
<!-- Generator: Adobe Illustrator 24.1.2, SVG Export Plug-In . SVG Version: 6.00 Build 0)  -->
<svg version="1.1" id="Layer_1" xmlns="http://www.w3.org/2000/svg" xmlns:xlink="http://www.w3.org/1999/xlink" x="0px" y="0px"
	 viewBox="0 0 595.3 841.9" style="enable-background:new 0 0 595.3 841.9;" xml:space="preserve">
<style type="text/css">
	.st0{fill:#6C398E;}
</style>
<g>
	<path class="st0" d="M376.8,561.4c-7.5-9-15.4-17.6-23.2-25.8c-11.6-19.2-24-36.9-38.9-50.7c-13.7-11.8-27.3-38.5-45.9-47.6
		c0.6,1.8,1.4,3.4,2.2,4.8c-2.1-1.7-4.3-3.2-6.5-4.4c-16.2-23.3-31.2-46.8-45.3-72c-2.1-3.7-5.6-5.5-7.7-9.2
		c-2.2-3.7-4.4-7.4-6.6-11c-0.2,0.1-0.3,0.2-0.3,0.4c-9.4-15-19-29.5-29.9-44.4c-4.8-7.2-8.2-15.1-12.3-22.6c-1.5-2.8,1-4.2,0.6-6.5
		c-0.9-9.3-1.4-16.3-4.7-25.5c0,0,1.3-0.7,1.9-1c-0.9-1.2-1.5-2.4-1.8-3.4c9.4,0.2,17.5,9.1,16.6-4.5l0,0c0.5,0.5,1,0.9,1.5,1.3
		l0.1,0.2l0.1-0.1c2.5,2,4.5,2.9,7.5,3.3l-2.7-4.9c1.1-0.2,2.1-0.5,2.9-1.1l0.7,0.2c0.4,0.7,0.7,1.3,0.7,1.3c0.6,0,1.2-0.1,1.8-0.3
		c5.1,2.8,10.2,8.8,12.1,6.1c0.8-1.7-2.1-4.2-4.8-7.4c0.1-0.3,0.2-0.7,0.3-1.1c3.2,4.4,4.5-2.4,6.6,0c2,3.8,4.7,7.1,6.7,10.9
		c8.3,15.3,15.9,27.7,26,41.6l1.3,1.8c4.8,6.8,8.7,13.6,12.1,20.9c-0.7-0.2-1.4-0.5-2-0.7c2.7,5.9,5.8,11.7,9.9,16.9
		c10.3,12.6,20.7,25.1,29.6,39.5c9.3,15.3,19.1,29.5,30.2,44c-5.1-5.6-10-11.3-14.2-17.7c-1.6-3-3.3-6-5-8.8c1.5,3.1,3.2,6,5,8.8
		c6.2,11.6,12.1,23.7,23.1,29.1c0,1.3-0.6,1.6-0.1,2.5c3.7,6.5,6.8,13.3,12.5,17.4c0.6-0.4,2.2,2.4,3,0.8c3.8,5.2,7.5,11.6,12,16.4
		c1.8,2.1,4.4,3.8,7.3,5.3c14.8,17.8,29.6,35.2,45.3,54.5c3.7,4.9,7.3,10.9,10.5,16.2c-6.7-6.6-13.3-13.6-19.6-20.8
		c-4.2-8.2-8.7-15.8-15.6-20.2c-1.5-1.2-2.9-2.3-4.3-3.4c6.6,8,13.2,16,19.9,23.6c2.5,4.8,4.9,9.9,7.7,14.6l-0.3-0.2
		c-3-3.2-6-6.5-8.9-9.8c-3.8-7.3-7.7-14.1-13.4-18.6c-0.7-0.6-1.4-1.1-2.2-1.6c-1.5-1.2-2.9-2.3-4.3-3.4l12.2,14.7l7.7,8.9
		c1.1,2.2,2.2,4.3,3.3,6.5l-0.9-0.4c-1.7-1.5-12.1-2.2-12.4,1.6c4.2,7,10.1,15,14.7,21.3c4.7,6.3,8.2,10.9,7.9,11.1
		c-2,2.4-19.6-19.8-19.7-18.5c0.5,1.5,1.1,3,1.7,4.5c-1.3-1-2.5-1.9-3.8-2.7c-2.3-2.4-3.8-6.4-6.1-7.5c-7.6-4.2-10.6-12.3-17.5-18.1
		c-4.6-3.5-10.3-7.5-16.1-11.6c-1.3,0.7-2.2-2.4-3-0.7c-3.1-5.2-6.6-11.2-11.5-11.3l-0.3-0.3c-0.2-0.4-0.7-0.8-1.3-1.2
		c-4.4-9-11.4-13-18.4-19.5c-1.9-2.5-3.7-5.2-5.3-8c1.1,1.9,2,5,3.7,6.5l1.6,1.5c4.9,6.5,10.5,12.2,15.7,18.1
		c0.7,0.3,1.8,0.9,2.7,1.4l0.7,1.5c0.3,0,0.6,0,0.9,0c5.5,5.3,10.4,12.1,15.4,16.5c8.1,9,13.5,20.4,19.3,31
		c-4.1-4.6-8.3-9-12.4-13.3c4.8,5.6,9.4,10.9,13.9,16l1.5,2.7l3.3,5.5c-0.7-1.9-1.5-3.7-2.4-5.5c2.8,3,5.5,5.9,8.3,8.8
		c13.8,16.6,26.7,34.6,37,53.7c-1,0.1-2,0.1-3,0.1c-5.8-8.7-11.2-17.6-18.9-23c3.1,5.2,6.3,8.1,9.5,13c-0.4,0.2-0.8,0.6-1.3,0.3
		c2.6,2.8,5.5,6.1,7.9,9.6c-2.3-0.2-4.7-0.5-7.1-0.8c-2.4-1.1-4-3.8-6.3-6.2c-8.2-11.2-14.6-22.6-23.1-33.4
		c-6-10.6-12-21.2-18.1-31.4C361.7,545.4,369.1,553.7,376.8,561.4L376.8,561.4z M183.1,259.3c0.8,0.8,1.6,1.6,2.5,2.5l0.2-0.7
		C185.4,260.2,184.3,259.6,183.1,259.3L183.1,259.3z M194.5,281.6c-2.4-7-8.5-14.7-13.9-22.4c-0.2,0-0.4,0.1-0.5,0.2
		C183.1,266.6,189.3,274.2,194.5,281.6L194.5,281.6z M195.3,314.6l0.1-0.3l-0.3,0.2L195.3,314.6L195.3,314.6z M279.2,417
		c-7.4-5.6-12.7-14.9-19.2-23.5c-1.6-2.8-5.7-4.1-7.8-7.9c-3.3-4.3-6.1-6.4-8.8-9.8l0.3,3.5c-3-6.9-8.9-8.5-11.3-15.7
		c-0.6,0.4-2.4,0.1-3-0.8c-3.3-4.3-4.6-9.7-7.9-12.7c-3.2-4.3-5.8-9-9.2-12c-0.5-0.9-3.5-1.7-5.2-3.3c-1.5-2.2-2.9-4.4-4.4-6.5
		l-0.4,0.6c1,1.9,2.1,3.7,3.6,5.4c4.4,4.9,9.3,10.8,13.1,16c9.1,13.3,18.9,25,28.8,36.6c2.2,2.4,5.1,4.5,7.3,7
		c7.3,7,12.4,17.5,20,20.6C276.3,415,277.4,416.8,279.2,417L279.2,417z M312.5,411.8c-8.3-8.2-15.6-18.3-20.3-27.9
		c-4.2-7.4-20-26.6-25.6-18.6C285.6,366.7,301.6,426.5,312.5,411.8L312.5,411.8z M368.5,481.9c-3.2-3.3-6.3-6.5-8.8-10.8
		L368.5,481.9L368.5,481.9z M320.1,457.6c11.3,9.5,19.5,22,29,32.5c7.3,8.1,10,20.1,19.3,25.7l1.9-1.1l-1.2-0.5
		c-1.5-3.4-2-6.6-3.1-9.6l0.4,0.4l-0.6-0.8c-0.7-2-1.7-3.9-3.5-5.8l-2.6-2.5c-7.9-10.8-15.7-22.1-25.7-30.3
		c-5.6-5.4-12-9.1-17.6-14.4C317.4,453,318.4,456.1,320.1,457.6L320.1,457.6z"/>
	<path class="st0" d="M385.8,299c-4.8,9-9.2,18.2-13.2,27.3c-12,15.4-22.5,31-28.5,47.9c-4.8,15.2-22.5,34.4-22.9,53.3
		c1.3-1,2.3-2.1,3.3-3.3c-0.6,2.3-1,4.6-1.2,7c-13.7,20.6-27.9,40.2-44.1,59.4c-2.4,2.9-2.5,6.4-4.9,9.3c-2.3,3-4.6,5.9-6.9,8.8
		c0.1,0.1,0.3,0.2,0.5,0.2c-9.2,12.3-17.8,24.8-26.3,38.4c-4.3,6.2-9.7,11.4-14.5,17c-1.8,2.1-4,0.2-5.8,1.2
		c-7.6,3.3-13.5,5.6-20,11c0,0-1.1-1-1.7-1.4c-0.6,1.1-1.4,2-2.2,2.6c-3.6-8.4,0.8-18-10.5-13.5l0,0c0.2-0.6,0.4-1.2,0.5-1.7
		l0.1-0.1l-0.1,0c0.7-2.7,0.7-4.8-0.2-7.5l-3.2,3.7c-0.6-0.9-1.2-1.7-2.1-2.3l-0.2-0.7c0.5-0.5,0.9-1,0.9-1c-0.3-0.5-0.6-1-0.9-1.5
		c0.4-5.3,3.5-11.4,0.4-12.4c-1.8-0.3-2.8,3-4.4,6.3c-0.3,0-0.7,0-1,0.1c2.5-4-3.9-3.3-2.6-5.9c2.4-2.8,4.3-6.1,6.7-8.9
		c9.8-11.4,17.5-21.6,25.4-34.3l1.1-1.7c3.9-6.1,8.2-11.3,13.2-16.3c0.1,0.7,0.1,1.3,0.2,2c4-4,7.8-8.3,10.6-13.3
		c6.7-12.5,13.4-25,22.3-36.9c9.5-12.3,17.8-24.8,26-38.5c-2.8,6-5.8,11.9-9.6,17.3c-1.9,2.2-3.9,4.5-5.6,6.8
		c2.1-2.1,3.9-4.4,5.6-6.8c7.5-8.6,15.6-17.1,15.9-28.2c1.1-0.3,1.6,0.1,2.2-0.6c4.1-5,8.8-9.5,10-15.7c-0.6-0.5,1.2-2.6-0.5-2.8
		c2.9-4.8,7.1-9.8,9.4-15c1.1-2.2,1.6-4.9,1.8-7.8c9.5-17.8,18.7-35.6,29.2-54.5c2.8-4.6,6.6-9.4,9.9-13.6
		c-3,7.7-6.5,15.3-10.3,22.9c-5.4,5.9-10.2,11.9-11.3,19.2c-0.4,1.6-0.8,3.1-1.2,4.7c4.4-7.9,8.6-15.9,12.6-23.8
		c3.2-3.5,6.6-7,9.6-10.7l-0.1,0.3c-1.6,3.5-3.3,7-5,10.5c-4.8,5.3-9.2,10.6-10.8,16.8c-0.2,0.8-0.4,1.6-0.5,2.4
		c-0.4,1.6-0.8,3.1-1.2,4.7l7.9-14.7l4.7-9.1c1.4-1.5,2.9-3.1,4.3-4.6l0,0.9c-0.6,1.9,2.8,11.3,6.3,10.5c8.8-11.2,18.5-29,19.1-28.5
		c2.9,1.1-9.4,22.5-8.2,22.3c1.1-0.9,2.2-1.8,3.2-2.7c-0.3,1.4-0.7,2.8-0.9,4.1c-1.2,2.6-4,5.1-4.1,7.4c-0.6,7.8-6.4,12.6-8.8,20.2
		c-1.2,5-2.4,11.1-3.7,17.3c1.1,0.9-1.2,2.6,0.5,2.8c-3.3,4.1-7.1,8.8-5.2,13.2l-0.1,0.4c-0.2,0.3-0.4,0.8-0.5,1.5
		c-6.1,6.3-6.8,13.6-9.6,21.5c-1.4,2.3-3,4.6-4.8,6.8c1.2-1.4,3.5-3.1,4.1-5l0.7-1.8c3.7-6.1,6.4-12.5,9.4-18.7c0-0.7,0-1.8,0.2-2.8
		l1-1c-0.1-0.3-0.3-0.6-0.4-0.8c2.4-6.3,6.4-12.4,8.1-18c4.5-9.6,12.4-17.3,19.3-25.3c-2.3,4.8-4.5,9.7-6.6,14.5
		c3-5.7,5.8-11.2,8.3-16.5l1.7-2.1l3.5-4.3c-1.3,1.2-2.6,2.3-3.8,3.5c1.5-3.2,3-6.4,4.3-9.7c9-16.6,19.5-32.8,32-46.8
		c0.5,0.8,0.9,1.7,1.3,2.6c-5.3,7.4-10.9,14.5-12.5,22.7c3.3-4.1,4.5-7.7,7.5-11.8c0.3,0.3,0.8,0.6,0.8,1.1c1.4-3,3.1-6.5,5.2-9.5
		c0.8,2.1,1.4,4.3,2.1,6.5c0,2.4-1.7,4.5-2.9,7.2c-6.5,10.2-13.8,18.9-19.9,29.2c-6.8,8.1-13.6,16.2-20,24.3
		C377.9,316.5,382.2,307.8,385.8,299L385.8,299z M202,551.1c0.4-0.9,0.8-1.9,1.1-2.9l-0.7,0C201.8,548.9,201.8,550,202,551.1
		L202,551.1z M216.6,535c-5.1,4-9.3,11.5-13.7,18.4c0.1,0.2,0.2,0.3,0.4,0.4C208.3,549.1,212.4,541.6,216.6,535L216.6,535z
		 M244.7,525.4l-0.3,0l0.3,0.2L244.7,525.4L244.7,525.4z M299.6,423.6c-1.9,8-7.8,15.2-12.7,23.3c-1.8,2.1-1.3,6.1-3.7,9
		c-2.4,4-3.1,7.1-4.9,10.4l2.9-1.2c-4.7,4.5-3.8,10.2-9.1,14.2c0.6,0.5,1.1,2.1,0.5,2.8c-2.4,4-6.5,6.7-7.8,10.4
		c-2.4,4-5.4,7.6-6.7,11.4c-0.6,0.7-0.1,3.5-0.8,5.4c-1.2,1.9-2.6,3.8-3.9,5.6l0.6,0.2c1.2-1.4,2.4-2.9,3.2-4.6
		c2.5-5.2,5.6-11.1,8.6-15.9c7.9-11.6,14-23.5,20.1-35.3c1.2-2.6,1.9-5.7,3.1-8.3c3.1-8.3,10.2-15.7,9.8-23.2
		C298.9,426.7,300.1,425.3,299.6,423.6L299.6,423.6z M281.8,395.5c-3.8,9.5-9.6,18.7-16,25.4c-4.7,5.7-15,24.9-5.9,27.6
		C253.6,431.4,298.8,401.2,281.8,395.5L281.8,395.5z M320.3,327.3c-1.5,3.7-3.1,7.3-5.9,10.7L320.3,327.3L320.3,327.3z M318.4,376.7
		c3.7-12.5,11.3-23.1,16.6-34.3c4.1-8.6,13.4-14.2,14.6-23.9l-1.7-1.4l0,1.2c-2.4,2.3-4.9,3.6-7.1,5.3l0.1-0.5l-0.4,0.7
		c-1.4,1.2-2.7,2.6-3.6,4.6l-1.1,3c-6.3,9.8-12.9,19.8-16,30.8c-2.4,6.4-3.1,13-5.5,19.4C315.5,380.2,317.8,378.5,318.4,376.7
		L318.4,376.7z"/>
	<path d="M342,421.6c0.5-0.5,1-1,1.5-1.5c12.6-12.4,18.9-27.7,18.9-46.2c0-18.5-6.3-33.8-18.9-46.2c-12.4-12.4-27.7-18.7-45.8-18.7
		c-18.2,0-33.6,6.3-46,18.7C239.3,340.2,233,355.5,233,374c0,18.5,6.3,33.8,18.7,46.2c0.5,0.5,1,1,1.5,1.5c-0.5,0.5-1,1-1.5,1.5
		c-12.4,12.4-18.7,27.7-18.7,46.2c0,18.5,6.3,33.8,18.7,46.2c12.4,12.4,27.9,18.5,46,18.5c18.2,0,33.4-6.1,45.8-18.5
		c12.6-12.4,18.9-27.7,18.9-46.2c0-18.5-6.3-33.8-18.9-46.2C343,422.6,342.5,422.1,342,421.6L342,421.6z M352.9,374
		c0,13.3-3.6,24.8-11,34.4v-68.7C349.2,349.2,352.9,360.6,352.9,374L352.9,374z M332.6,330v84.3c-10.1-6.5-21.7-9.8-34.9-9.8
		c-13.1,0-24.7,3.3-34.9,9.7v-5v-79.3c9.8-8,21.5-11.9,34.9-11.9C311.2,317.9,322.8,321.9,332.6,330L332.6,330z M327.5,421.6
		c-8.6,5.5-18.5,8.3-29.8,8.3c-11.4,0-21.4-2.8-30-8.2c8.7-5.6,18.8-8.4,30-8.4C308.9,413.2,318.9,416,327.5,421.6L327.5,421.6z
		 M242.1,374c0-13.4,3.8-25,11.3-34.6v69.4C245.9,399.1,242.1,387.5,242.1,374L242.1,374z M242.1,469.3c0-13.4,3.8-25,11.3-34.6
		v69.4C245.9,494.4,242.1,482.8,242.1,469.3L242.1,469.3z M262.8,513.5v-84.4c10.1,6.4,21.8,9.6,34.9,9.6c13.1,0,24.8-3.2,34.9-9.7
		v84.3c-9.6,7.9-21.3,11.9-34.9,11.9C284,525.2,272.5,521.3,262.8,513.5L262.8,513.5z M341.9,503.7v-68.7c7.3,9.6,11,21,11,34.4
		C352.9,482.6,349.2,494.1,341.9,503.7L341.9,503.7z"/>
	<path d="M201.8,292.1l-14.1-18.7l-6,4.5l2.3,3l2.7-2l11.8,15.7L201.8,292.1L201.8,292.1z M217.9,282.2c3-1.7,5-4.2,5.9-7.4
		c0.9-3.2,0.6-6.3-1.1-9.3c-1.7-3-4.2-4.9-7.4-5.7c-3.2-0.9-6.4-0.5-9.4,1.2c-3,1.7-5,4.2-5.9,7.4c-0.9,3.2-0.6,6.3,1.1,9.3
		c1.7,3,4.2,4.9,7.4,5.8C211.8,284.3,214.9,283.9,217.9,282.2L217.9,282.2z M204.8,275.7c-1.2-2-1.5-4.2-0.9-6.3
		c0.6-2.2,1.9-3.9,3.9-5c2-1.1,4.1-1.4,6.3-0.8c2.2,0.6,3.8,2,5,4c1.2,2,1.4,4.2,0.8,6.4c-0.6,2.2-1.9,3.8-3.9,4.9
		c-2,1.1-4.1,1.4-6.3,0.8C207.6,279.1,206,277.7,204.8,275.7L204.8,275.7z M254.4,241.8c-3.3,0.8-5.8,2.6-7.6,5.4
		c-1.7,2.8-2.2,5.9-1.4,9.3c0.8,3.4,2.7,5.9,5.5,7.6c2.9,1.7,5.9,2.1,9.2,1.3c3.5-0.9,6.2-2.8,7.9-5.9l-2.2-9.1l-9.5,2.3l0.6,2.4
		l7-1.7l1.4,5.9c-1.4,2-3.3,3.2-5.7,3.8c-2.7,0.7-5.1,0.3-7.3-1.1c-2.2-1.4-3.6-3.4-4.3-6.1c-0.7-2.7-0.3-5.2,1-7.4
		c1.3-2.2,3.3-3.7,6-4.3c2.4-0.6,4.7-0.3,6.8,0.9l1.2-2.2C260.3,241.4,257.5,241,254.4,241.8L254.4,241.8z M278.4,258.3
		c2.5,2.2,5.5,3.1,8.9,2.9c3.4-0.2,6.2-1.5,8.4-4c2.2-2.5,3.2-5.4,3-8.9c-0.2-3.5-1.5-6.3-4.1-8.4c-2.5-2.2-5.4-3.2-8.8-3
		c-3.4,0.2-6.2,1.5-8.4,4c-2.2,2.5-3.2,5.4-3,8.9C274.6,253.3,275.9,256.2,278.4,258.3L278.4,258.3z M279.2,242.6c1.7-2,4-3,6.7-3.2
		c2.7-0.2,5.1,0.6,7,2.4c1.9,1.7,3,4,3.1,6.8c0.2,2.8-0.6,5.2-2.3,7.1c-1.7,2-3.9,3-6.7,3.2c-2.8,0.2-5.1-0.6-7-2.3
		c-1.9-1.7-3-4-3.1-6.8C276.8,246.9,277.5,244.6,279.2,242.6L279.2,242.6z M314.3,261.3c3.7,0.5,6.8-0.2,9.2-2.1
		c2.4-1.9,3.8-4.5,4.3-8c0.4-3.5-0.3-6.4-2.2-8.8c-1.9-2.4-4.7-3.8-8.4-4.3l-7.5-0.9l-2.9,23.2L314.3,261.3L314.3,261.3z M312,239.8
		l4.7,0.6c6.3,0.8,9.1,4.8,8.4,10.4c-0.7,5.6-4.5,8.8-10.7,8l-4.7-0.6L312,239.8L312,239.8z M336.2,265.1l5.5-22.8l-2.5-0.6
		l-5.5,22.8L336.2,265.1L336.2,265.1z M347.4,268.2l6.7-17.7l6.7,22.8l2,0.8l8.3-21.9l-2.5-0.9l-6.7,17.5l-6.6-22.5l-2.1-0.8
		l-8.3,21.9L347.4,268.2L347.4,268.2z M371.6,278.3l5-3.8l9.8,5.7l-0.8,6.2l2.4,1.4l3.2-25.2l-1.7-1l-20.3,15.2L371.6,278.3
		L371.6,278.3z M388.4,265.6l-1.6,12l-8.1-4.7L388.4,265.6L388.4,265.6z M411.6,298.6c1.5,0,2.8-1.4,2.7-2.9
		c-0.1-1.5-1.3-2.7-2.9-2.6c-1.5,0-2.7,1.4-2.7,2.9C408.9,297.5,410.1,298.6,411.6,298.6L411.6,298.6z M427.4,326.1l18.7-14.1
		l-4.5-6l-3,2.3l2,2.7l-15.7,11.8L427.4,326.1L427.4,326.1z M437.3,342.2c1.7,3,4.1,5.1,7.3,6c3.2,1,6.3,0.6,9.3-1
		c3-1.6,5-4.1,5.8-7.3c0.9-3.2,0.5-6.3-1.1-9.4c-1.7-3-4.1-5-7.3-6c-3.2-1-6.3-0.6-9.3,1c-3,1.6-5,4.1-5.8,7.3
		C435.3,336.1,435.7,339.2,437.3,342.2L437.3,342.2z M444,329.2c2.1-1.1,4.2-1.4,6.3-0.8s3.8,2,4.9,4s1.3,4.1,0.7,6.3s-2,3.8-4.1,5
		c-2.1,1.1-4.2,1.4-6.4,0.8c-2.1-0.6-3.8-1.9-4.9-4c-1.1-2-1.4-4.2-0.7-6.3C440.6,332,441.9,330.3,444,329.2L444,329.2z
		 M477.6,378.8c-0.8-3.3-2.6-5.8-5.4-7.6c-2.8-1.7-5.9-2.2-9.3-1.4c-3.4,0.8-5.9,2.7-7.6,5.5c-1.7,2.9-2.1,5.9-1.3,9.2
		c0.9,3.5,2.8,6.2,5.9,7.9l9.1-2.2l-2.3-9.5l-2.4,0.6l1.7,7l-5.9,1.4c-2-1.4-3.2-3.3-3.8-5.7c-0.7-2.7-0.3-5.1,1.1-7.3
		c1.4-2.2,3.4-3.6,6.1-4.3c2.7-0.7,5.2-0.3,7.4,1c2.2,1.3,3.7,3.3,4.3,6c0.6,2.4,0.3,4.7-0.9,6.8l2.2,1.2
		C478,384.7,478.3,381.9,477.6,378.8L477.6,378.8z M460.9,402.8c-2.2,2.5-3.1,5.5-2.9,8.9c0.2,3.4,1.5,6.2,4,8.4
		c2.5,2.2,5.4,3.2,8.9,3c3.5-0.2,6.3-1.5,8.4-4.1c2.2-2.5,3.2-5.4,3-8.8c-0.2-3.4-1.5-6.2-4-8.4c-2.5-2.2-5.4-3.2-8.9-3
		C465.9,399,463.1,400.3,460.9,402.8L460.9,402.8z M476.7,403.7c2,1.7,3,4,3.2,6.7c0.2,2.8-0.6,5.1-2.4,7c-1.7,1.9-4,3-6.8,3.1
		c-2.8,0.2-5.2-0.6-7.1-2.3c-2-1.7-3-3.9-3.2-6.7c-0.2-2.8,0.6-5.1,2.3-7c1.7-1.9,4-3,6.8-3.1C472.3,401.2,474.7,402,476.7,403.7
		L476.7,403.7z M457.9,438.7c-0.5,3.7,0.2,6.8,2.1,9.2c1.9,2.4,4.5,3.8,8,4.3c3.5,0.4,6.4-0.3,8.8-2.2c2.4-1.9,3.8-4.7,4.3-8.4
		l0.9-7.5l-23.2-2.9L457.9,438.7L457.9,438.7z M479.3,436.4l-0.6,4.7c-0.8,6.3-4.8,9.1-10.4,8.4c-5.6-0.7-8.8-4.5-8-10.7l0.6-4.7
		L479.3,436.4L479.3,436.4z M453.9,460.6l22.7,5.8l0.6-2.5l-22.7-5.8L453.9,460.6L453.9,460.6z M450.9,471.9l17.6,6.9l-22.9,6.4
		l-0.8,2l21.8,8.6l1-2.4l-17.4-6.9l22.6-6.3l0.8-2.1l-21.8-8.6L450.9,471.9L450.9,471.9z M440.7,496l3.8,5l-5.7,9.8l-6.2-0.8
		l-1.4,2.4l25.2,3.2l1-1.7l-15.2-20.3L440.7,496L440.7,496z M453.3,512.7l-12-1.6l4.7-8.1L453.3,512.7L453.3,512.7z M420.2,536
		c0,1.5,1.4,2.8,2.9,2.7c1.5,0,2.7-1.3,2.6-2.8c0-1.5-1.3-2.7-2.9-2.7C421.3,533.3,420.2,534.5,420.2,536L420.2,536z M392.7,551.6
		l14.1,18.7l6-4.5l-2.3-3l-2.7,2L396,549.1L392.7,551.6L392.7,551.6z M376.5,561.5c-3,1.7-5.1,4.1-6,7.3c-1,3.2-0.6,6.3,1,9.3
		c1.6,3,4.1,5,7.3,5.8c3.2,0.9,6.4,0.5,9.4-1.1c3-1.7,5-4.1,6-7.3c1-3.2,0.6-6.3-1-9.3s-4.1-5-7.3-5.8
		C382.6,559.4,379.5,559.8,376.5,561.5L376.5,561.5z M389.5,568.1c1.1,2.1,1.4,4.2,0.8,6.3c-0.6,2.2-2,3.8-4,4.9
		c-2,1.1-4.1,1.3-6.3,0.7c-2.2-0.7-3.8-2-5-4.1c-1.1-2.1-1.4-4.2-0.8-6.4c0.6-2.1,1.9-3.8,4-4.9c2-1.1,4.2-1.4,6.3-0.7
		C386.8,564.7,388.4,566.1,389.5,568.1L389.5,568.1z M339.6,601.6c3.3-0.8,5.9-2.6,7.7-5.4c1.8-2.8,2.3-5.9,1.5-9.2
		c-0.8-3.4-2.6-6-5.4-7.7c-2.8-1.7-5.9-2.2-9.2-1.4c-3.5,0.8-6.2,2.7-7.9,5.8l2.1,9.1l9.5-2.2l-0.5-2.4l-7,1.6L329,584
		c1.4-1.9,3.3-3.2,5.7-3.7c2.7-0.6,5.1-0.3,7.3,1.1c2.2,1.4,3.6,3.5,4.2,6.2c0.6,2.7,0.3,5.2-1.1,7.4c-1.4,2.2-3.4,3.6-6.1,4.3
		c-2.5,0.6-4.7,0.3-6.8-0.9l-1.2,2.1C333.7,602,336.5,602.3,339.6,601.6L339.6,601.6z M315.8,584.9c-2.5-2.2-5.4-3.2-8.8-3.1
		c-3.4,0.2-6.2,1.4-8.5,3.9c-2.3,2.4-3.3,5.4-3.2,8.9c0.2,3.5,1.5,6.3,4,8.5c2.5,2.2,5.4,3.2,8.8,3.1c3.4-0.2,6.2-1.5,8.5-3.9
		c2.2-2.4,3.3-5.4,3.1-8.8C319.6,590,318.3,587.1,315.8,584.9L315.8,584.9z M314.8,600.7c-1.8,1.9-4,3-6.8,3.1
		c-2.8,0.1-5.1-0.7-7-2.5c-1.9-1.8-2.9-4-3-6.8c-0.1-2.8,0.7-5.2,2.4-7.1c1.7-1.9,4-2.9,6.7-3.1s5.1,0.7,7,2.4
		c1.9,1.8,2.9,4.1,3,6.9C317.3,596.4,316.5,598.7,314.8,600.7L314.8,600.7z M280,581.7c-3.7-0.5-6.8,0.2-9.2,2.1
		c-2.4,1.9-3.8,4.5-4.3,8c-0.4,3.5,0.3,6.4,2.2,8.8c1.9,2.4,4.7,3.8,8.4,4.3l7.5,0.9l2.9-23.2L280,581.7L280,581.7z M282.2,603.1
		l-4.7-0.6c-6.3-0.8-9.1-4.8-8.4-10.4c0.7-5.6,4.5-8.8,10.7-8l4.7,0.6L282.2,603.1L282.2,603.1z M258.1,577.7l-5.8,22.7l2.5,0.6
		l5.8-22.7L258.1,577.7L258.1,577.7z M246.8,574.6l-6.9,17.6l-6.4-22.9l-2-0.8l-8.6,21.8l2.4,1l6.9-17.4l6.3,22.6l2.1,0.8l8.6-21.8
		L246.8,574.6L246.8,574.6z M222.7,564.4l-5,3.7l-9.7-5.8l0.9-6.2l-2.4-1.5l-3.5,25.2l1.7,1l20.5-15L222.7,564.4L222.7,564.4z
		 M205.8,576.8l1.7-12l8,4.8L205.8,576.8L205.8,576.8z M182.8,543.7c-1.5,0-2.8,1.4-2.7,2.9c0,1.5,1.3,2.7,2.8,2.6
		c1.5,0,2.7-1.3,2.7-2.9C185.6,544.8,184.3,543.6,182.8,543.7L182.8,543.7z M167.3,516.1L148.4,530l4.5,6.1l3.1-2.3l-2-2.7
		l15.8-11.6L167.3,516.1L167.3,516.1z M157.5,499.9c-1.7-3-4.1-5.1-7.3-6c-3.2-1-6.3-0.6-9.3,1c-3,1.6-5,4.1-5.8,7.3
		c-0.9,3.2-0.5,6.4,1.1,9.4c1.7,3,4.1,5,7.3,6c3.2,1,6.3,0.6,9.3-1c3-1.6,5-4.1,5.8-7.3C159.5,506,159.2,502.9,157.5,499.9
		L157.5,499.9z M150.8,512.9c-2.1,1.1-4.2,1.4-6.3,0.8c-2.2-0.6-3.8-2-4.9-4c-1.1-2-1.3-4.1-0.7-6.3c0.7-2.2,2-3.8,4.1-5
		c2.1-1.1,4.2-1.4,6.4-0.8c2.1,0.6,3.8,1.9,4.9,4c1.1,2,1.4,4.2,0.7,6.3C154.3,510.1,152.9,511.8,150.8,512.9L150.8,512.9z
		 M117.5,463c0.8,3.3,2.6,5.9,5.4,7.7c2.8,1.8,5.9,2.3,9.2,1.5c3.4-0.8,6-2.6,7.7-5.4c1.7-2.8,2.2-5.9,1.4-9.2
		c-0.8-3.5-2.7-6.2-5.8-7.9l-9.1,2.1l2.2,9.5l2.4-0.5l-1.6-7l5.9-1.4c1.9,1.4,3.2,3.3,3.7,5.7c0.6,2.7,0.3,5.1-1.1,7.3
		c-1.4,2.2-3.5,3.6-6.2,4.2c-2.7,0.6-5.2,0.3-7.4-1.1c-2.2-1.4-3.6-3.4-4.3-6c-0.6-2.5-0.3-4.7,0.9-6.8l-2.1-1.2
		C117.1,457,116.8,459.8,117.5,463L117.5,463z M134.3,439.1c2.2-2.5,3.2-5.4,3.1-8.8c-0.2-3.4-1.4-6.2-3.9-8.5
		c-2.4-2.3-5.4-3.3-8.9-3.2c-3.5,0.2-6.3,1.5-8.5,4c-2.2,2.5-3.2,5.4-3.1,8.8c0.2,3.4,1.5,6.2,3.9,8.5c2.4,2.2,5.4,3.3,8.8,3.1
		C129.2,442.9,132.1,441.6,134.3,439.1L134.3,439.1z M118.5,438.1c-1.9-1.8-3-4-3.1-6.8c-0.1-2.8,0.7-5.1,2.5-7c1.8-1.9,4-2.9,6.8-3
		c2.8-0.1,5.2,0.7,7.1,2.4c1.9,1.7,2.9,4,3.1,6.7c0.1,2.8-0.7,5.1-2.4,7c-1.8,1.9-4.1,2.9-6.9,3
		C122.8,440.6,120.5,439.8,118.5,438.1L118.5,438.1z M137.6,403.3c0.5-3.7-0.1-6.8-2-9.2c-1.8-2.4-4.5-3.9-8-4.4
		c-3.5-0.5-6.4,0.2-8.9,2.1c-2.4,1.8-3.9,4.6-4.4,8.3l-1,7.5l23.2,3.2L137.6,403.3L137.6,403.3z M116.1,405.3l0.6-4.7
		c0.9-6.3,4.9-9.1,10.5-8.3c5.6,0.8,8.7,4.6,7.9,10.8l-0.6,4.7L116.1,405.3L116.1,405.3z M141.7,381.4l-22.7-5.8l-0.6,2.5l22.7,5.8
		L141.7,381.4L141.7,381.4z M144.8,370.2l-17.6-6.9l22.9-6.4l0.8-2l-21.8-8.6l-1,2.4l17.4,6.9l-22.6,6.3l-0.8,2.1l21.8,8.6
		L144.8,370.2L144.8,370.2z M155.1,346.1l-3.7-5l5.8-9.7l6.2,0.9l1.5-2.4l-25.2-3.5l-1,1.7l15,20.5L155.1,346.1L155.1,346.1z
		 M142.7,329.2l12,1.7l-4.8,8L142.7,329.2L142.7,329.2z M175.9,306.3c0-1.5-1.4-2.8-2.9-2.7c-1.5,0.1-2.7,1.3-2.6,2.9
		c0,1.5,1.4,2.7,2.9,2.7C174.8,309.1,175.9,307.8,175.9,306.3L175.9,306.3z"/>
</g>
</svg>
