<?xml version="1.0" encoding="UTF-8" standalone="no"?>
<!-- Created with Inkscape (http://www.inkscape.org/) -->

<svg
   version="1.1"
   id="svg2"
   width="755.90668"
   height="755.90668"
   viewBox="0 0 755.90668 755.90668"
   sodipodi:docname="HOB_10_MATERIJALI_2.eps"
   xmlns:inkscape="http://www.inkscape.org/namespaces/inkscape"
   xmlns:sodipodi="http://sodipodi.sourceforge.net/DTD/sodipodi-0.dtd"
   xmlns="http://www.w3.org/2000/svg"
   xmlns:svg="http://www.w3.org/2000/svg">
  <defs
     id="defs6" />
  <sodipodi:namedview
     id="namedview4"
     pagecolor="#ffffff"
     bordercolor="#000000"
     borderopacity="0.25"
     inkscape:showpageshadow="2"
     inkscape:pageopacity="0.0"
     inkscape:pagecheckerboard="0"
     inkscape:deskcolor="#d1d1d1" />
  <g
     id="g8"
     inkscape:groupmode="layer"
     inkscape:label="ink_ext_XXXXXX"
     transform="matrix(1.3333333,0,0,-1.3333333,0,755.90667)">
    <g
       id="g10"
       transform="scale(0.1)">
      <path
         d="m 3629.87,1435.74 c -75.29,90.16 -153.52,176.16 -232.01,257.97 -116.37,191.54 -240.33,369.21 -389.42,507.23 -136.62,118.48 -273.11,385.18 -459.32,476.06 6.43,-17.54 13.99,-33.55 22.41,-48.32 -21.12,16.86 -42.84,31.75 -65.33,44.32 -162.06,233.3 -312.47,467.51 -453.38,720.06 -21,37.41 -55.66,54.91 -76.51,92.39 -22.27,37.26 -44.2,73.93 -66.06,110.49 -1.51,-0.66 -2.66,-1.91 -3.48,-3.7 -93.64,150.01 -190.18,295.19 -298.83,444.33 -47.62,71.77 -82.34,150.69 -123.12,226.09 -15.35,28.29 10.29,42.18 6.48,64.54 -8.9,92.68 -13.75,163.12 -46.52,254.91 0,0 12.84,6.92 19.26,10.37 -9.2,11.83 -15.28,23.62 -18.34,34.29 93.87,-1.86 175.01,-91.16 166.03,44.9 l 0.21,0.12 c 5.36,-4.66 10.37,-9.01 15.32,-13.31 l 0.98,-1.82 0.65,0.5 c 24.61,-19.83 45.39,-28.69 74.63,-32.76 l -26.61,49.47 c 10.66,1.72 20.77,4.56 28.85,11.1 l 7.45,-1.59 c 3.94,-7.32 7.25,-13.47 7.25,-13.47 6.24,0.28 12.13,1.18 17.71,2.65 50.72,-28.3 101.83,-88.36 121.41,-60.9 8.23,17.41 -20.66,42.44 -48.1,73.78 1.26,3.47 2.16,7.14 2.54,10.62 31.67,-43.5 44.91,24.23 66.45,-0.47 20.17,-37.53 47.06,-71.41 67.35,-108.88 82.55,-152.63 159.17,-277.46 260.14,-416.43 l 13.09,-18.42 c 47.82,-67.99 86.82,-135.52 120.87,-209.13 -6.87,2.1 -13.57,4.57 -20.16,7.25 27.35,-59.24 57.71,-116.99 99.03,-168.59 102.95,-125.62 206.53,-250.61 296.34,-395.48 92.59,-152.67 190.75,-294.58 301.63,-439.78 -50.83,56.18 -100.08,113.23 -142,176.75 -16.16,30.02 -32.66,59.7 -50.21,87.66 14.8,-30.92 31.86,-59.82 50.21,-87.66 62.14,-115.53 121.37,-237.01 231.06,-290.58 0.18,-12.51 -6.14,-16.13 -0.87,-25.32 36.95,-64.7 67.83,-132.85 125.05,-173.5 6.31,3.64 22.29,-24.04 29.58,-7.54 38.3,-51.58 75.32,-116.19 120.07,-163.94 17.97,-21.5 43.92,-38.26 72.61,-53.48 148.25,-177.68 296.5,-352 453.27,-544.5 36.97,-48.97 73.33,-109.19 104.88,-162.25 -67.4,65.58 -132.61,135.77 -196.48,208.5 -42.31,82.15 -87.31,158.12 -156.28,202.02 -14.54,11.56 -28.69,22.81 -42.57,33.83 65.64,-80.37 131.64,-159.56 198.85,-235.85 25.07,-48.46 48.98,-99.16 76.78,-146.29 l -2.99,2.04 c -30.09,32.07 -59.61,64.9 -88.96,98.23 -37.6,73.12 -77.48,141.19 -134.36,186.27 -7.1,5.61 -14.43,11.02 -22.08,15.81 -14.52,11.55 -28.7,22.83 -42.55,33.85 l 122.21,-146.89 76.78,-89.04 c 10.92,-21.51 22.01,-43.37 33.06,-65.15 l -8.71,3.72 c -17.08,14.67 -121.09,22.31 -123.72,-16.28 42.3,-70.13 100.65,-149.93 147.31,-212.84 46.68,-62.9 81.97,-108.72 78.89,-110.56 -19.76,-24.19 -196.1,197.56 -197.02,184.72 5.22,-15.19 10.92,-30.14 16.9,-44.85 -12.73,9.81 -25.44,19.26 -38.26,27.29 -22.59,23.7 -38.12,64.04 -61.47,75.01 -75.56,41.88 -106.36,122.71 -174.77,181.32 -45.93,34.89 -103.32,75.27 -160.91,115.7 -12.55,-7.35 -22.49,24 -29.68,7.39 -30.5,51.93 -65.65,112.05 -115.34,112.97 l -3.19,3.2 c -2.13,3.67 -7.26,7.67 -13.39,11.57 -43.87,90.45 -114.22,130.45 -183.93,195.21 -18.86,25.21 -36.88,51.55 -53.25,79.91 10.69,-18.52 20.39,-49.9 37.41,-64.8 l 15.84,-15.11 c 48.84,-65.42 104.64,-122.28 156.99,-180.96 6.89,-3.27 17.95,-8.54 26.94,-14.25 l 7.09,-15.24 c 3.26,0.35 6.42,0.49 9.49,0.47 55,-53.23 103.86,-121.19 154.05,-164.52 81.16,-89.62 134.92,-204.36 192.69,-310.47 -41.03,45.51 -82.56,89.8 -124.25,132.76 47.8,-56.42 93.58,-109.19 139.19,-159.66 l 15.29,-26.56 32.77,-55.06 c -7.43,18.78 -15.43,37 -23.64,54.99 27.59,-29.92 55.24,-59.22 83.35,-87.57 138.47,-166.42 267.24,-346.26 369.53,-537.202 -9.78,-0.968 -19.85,-1.367 -30.15,-1.277 -57.68,87.029 -111.62,176.239 -188.77,229.499 31,-51.66 63.28,-80.84 94.66,-129.77 -3.61,-2.12 -8.47,-5.7 -13.27,-2.94 26.31,-27.54 55.48,-60.65 79.26,-95.57 -23.14,1.789 -46.96,5.09 -70.83,8.351 -23.53,10.77 -40.08,38.159 -62.89,61.849 -82.2,112.24 -146.27,226.05 -231.26,334.29 -59.79,105.84 -119.55,211.54 -181.13,313.58 77.76,-91.53 151.42,-174.32 228.23,-251.67 z M 1693.49,4457.03 c 7.88,-8.21 16.42,-16.48 25.23,-24.57 l 2.06,6.88 c -4.94,9.1 -15.82,14.86 -27.29,17.69 z m 113.22,-223.15 c -24.31,70.37 -84.82,147.45 -139.43,224.13 -2.02,-0.48 -3.87,-1.12 -5.33,-1.91 31.53,-72.07 92.92,-148.44 144.76,-222.22 z m 8.12,-330.18 1.24,2.69 -2.84,-1.74 z m 839.13,-1024.11 c -73.85,56.32 -126.88,149.18 -191.98,235.15 -15.75,27.94 -56.86,41.48 -77.9,78.78 -32.59,43.02 -61.09,63.78 -88.32,97.61 l 2.99,-35.19 c -30.27,68.92 -89.33,84.92 -113.14,157.39 -6.39,-3.57 -24.34,-1.36 -29.58,7.99 -32.55,43.09 -45.8,97.06 -79.3,127.39 -32.36,43.24 -58.32,89.98 -91.86,120.41 -5.22,9.38 -34.74,17.45 -51.57,32.68 -14.73,21.99 -29.25,43.67 -43.79,65.38 l -3.55,-5.63 c 10.01,-18.77 21.09,-37.34 35.79,-53.86 43.93,-49.21 93.14,-107.6 130.66,-160.21 90.71,-133.41 189.49,-249.88 288.31,-366.06 22.07,-24.38 50.58,-45.21 72.65,-69.54 72.57,-69.58 124.38,-175.44 200.42,-205.89 11.66,-5.71 22.22,-24.28 40.17,-26.4 z m 333.63,52.97 c -82.5,82.12 -156.3,183.35 -203.25,278.58 -41.88,74.23 -200.3,266.09 -255.6,186.21 189.73,-14.37 349.9,-612.08 458.85,-464.79 z m 559.9,-701.22 c -32.45,32.6 -62.95,64.67 -88.41,108.4 z m -484.62,242.95 c 113.28,-94.61 194.92,-219.67 289.68,-324.73 72.81,-80.86 100.46,-200.51 193.17,-257.16 l 18.85,11.1 -11.69,5.44 c -15.35,34.35 -20.43,66.29 -31.05,96.38 l 4.43,-3.75 -5.8,7.56 c -7.33,19.95 -17.4,39.17 -34.96,57.86 l -26.39,24.91 c -78.62,108.19 -157.09,221.38 -257.49,302.61 -56.27,53.58 -119.76,90.72 -176.07,144.44 10.63,-18.41 20.34,-49.81 37.32,-64.66"
         style="fill:#62369c;fill-opacity:1;fill-rule:nonzero;stroke:none"
         id="path12" />
      <path
         d="m 3720.56,4060.17 c -48.44,-90.33 -92.06,-182.19 -131.89,-273.24 -119.86,-153.52 -224.5,-310.29 -284.85,-478.82 -48.45,-152.27 -224.68,-344.07 -229.36,-533.1 12.58,10.37 23.41,21.33 32.83,32.71 -6.2,-23.17 -10.46,-46.37 -12.4,-69.61 -137.04,-205.72 -279.3,-401.5 -440.81,-594.05 -23.89,-28.61 -25.16,-64.04 -49.14,-92.57 -23.22,-29.73 -46.08,-59.01 -68.86,-88.19 1.16,-1.17 2.7,-1.85 4.57,-2.09 -91.88,-123.27 -178.38,-247.86 -263.3,-384.39 -42.76,-61.54 -96.75,-113.62 -145.26,-170.15 -18.19,-21.25 -40.33,-2.28 -58.02,-11.69 -76.09,-32.92 -134.63,-56.28 -200.34,-110.2 0,0 -11.07,9.53 -16.59,14.27 -6.49,-11.35 -14.19,-19.93 -22.12,-25.54 -35.83,83.72 8.49,179.85 -104.73,135.06 l -0.18,0.15 c 1.84,5.97 3.59,11.6 5.31,17.18 l 1.18,1.37 -0.69,0.44 c 7.22,27.19 6.53,48.01 -1.63,75.04 l -31.86,-36.99 c -5.73,8.99 -12.2,17.19 -21.03,22.58 l -1.6,7.04 c 4.71,5.47 8.67,10.07 8.67,10.07 -2.72,5.45 -5.85,10.44 -9.33,14.99 4.06,52.65 35.29,114.19 3.91,124.12 -18.23,2.6 -28.23,-29.78 -44.19,-62.61 -3.48,0.19 -6.99,-0.02 -10.13,-0.62 24.72,39.86 -38.7,33.26 -26.08,59.04 24.18,28.06 42.59,61.04 66.7,89.15 98.19,114.46 175.03,216.03 254.33,342.98 l 10.65,16.55 c 39.46,60.68 82.05,113.42 131.83,163.41 0.92,-6.66 1.47,-13.26 1.78,-19.82 40.08,40.18 77.76,82.56 105.75,133.04 67.2,124.98 133.8,250.2 223,368.53 94.83,122.87 178.32,247.69 259.68,384.59 -28.35,-59.98 -58.02,-118.83 -96.21,-172.9 -19.49,-22.33 -38.56,-44.85 -55.71,-67.87 20.79,21.37 38.98,44.18 55.71,67.87 75,85.89 156.34,170.74 159.21,282.06 10.72,3.49 16.34,-1.13 22.19,5.98 41.2,49.98 87.82,95.44 100.32,156.87 -5.63,4.62 11.96,26.12 -5.18,28.19 29.43,47.58 70.54,97.58 94.14,149.82 11.48,21.62 15.72,49.01 17.54,78.43 94.95,178.38 187.27,355.63 292.06,545.15 27.8,45.65 65.66,93.68 99.17,135.57 -30.26,-76.89 -65.33,-153.06 -103.08,-228.79 -54.41,-59.14 -102.42,-119.03 -113.14,-191.67 -4.28,-15.99 -8.42,-31.49 -12.46,-46.62 43.58,79.37 86.06,158.69 125.6,238.29 32.07,34.98 66.47,69.56 96.35,106.57 l -0.59,-3.18 c -15.93,-35.05 -32.68,-69.86 -49.97,-104.61 -48.43,-52.61 -91.64,-105.85 -108.19,-168.1 -2.04,-7.77 -3.83,-15.69 -4.95,-23.73 -4.28,-15.96 -8.44,-31.49 -12.49,-46.59 l 78.86,146.97 46.77,91.45 c 14.32,15.33 28.86,30.93 43.35,46.46 l 0.22,-8.69 c -5.97,-18.98 28.41,-112.94 62.85,-105.05 87.74,112.14 185.24,289.89 190.9,285.36 28.69,-11.05 -93.85,-225.48 -82.38,-222.9 11.1,8.63 21.8,17.61 32.17,26.78 -3.47,-13.84 -6.65,-27.56 -8.55,-41.02 -11.63,-26.23 -40.44,-50.6 -40.71,-74.16 -6.47,-77.86 -64.26,-126.49 -88.01,-202.47 -12.05,-49.86 -24.32,-111.31 -36.55,-172.94 11.3,-9.15 -11.88,-26.25 5.32,-28.21 -32.88,-40.71 -70.99,-87.76 -52.14,-131.96 l -1.49,-3.67 c -2.33,-2.86 -3.77,-8.46 -4.72,-14.91 -60.81,-62.84 -67.64,-135.64 -95.99,-214.55 -14.32,-23.41 -29.94,-46.35 -47.96,-68.37 11.77,14.38 35.03,31.32 41.18,50.33 l 6.78,18.04 c 37.17,60.63 64.3,125.04 94.32,186.93 0.11,6.96 0.28,18.16 1.67,27.62 l 10.38,10.31 c -1.47,2.92 -2.85,5.66 -4.17,8.27 24.26,62.81 63.8,123.97 81.44,179.86 45.42,95.54 123.54,173.41 192.58,252.56 -23.2,-48.33 -45.16,-96.75 -65.89,-144.97 29.97,57.18 57.59,111.61 83.28,165.29 l 16.96,20.55 34.76,43.49 c -13.34,-11.52 -25.96,-23.41 -38.3,-35.41 15.03,32.28 29.52,64.46 42.99,96.78 89.51,166.37 194.72,327.5 320.07,468.08 4.7,-8.38 8.99,-17.18 12.97,-26.3 -52.79,-73.85 -108.94,-144.95 -124.71,-227.18 32.57,41.01 45.12,77.24 75.22,117.82 3.26,-2.63 8.28,-5.99 7.77,-10.95 13.54,30.49 30.78,64.96 51.71,95.15 7.54,-20.9 14.04,-42.82 20.58,-64.75 -0.09,-23.62 -17.32,-45.45 -28.89,-71.82 -64.94,-102.18 -138.37,-188.76 -198.62,-292.45 -68.1,-80.8 -136.08,-161.51 -200.06,-242.96 48.51,92.96 91.18,179.93 127.92,268.22 z M 1882.03,1539.12 c 3.9,9.2 7.6,19.01 11.06,29 l -6.74,-0.03 c -5.85,-6.84 -6.47,-18.04 -4.32,-28.97 z m 146.62,160.63 c -50.84,-40.49 -92.9,-115.02 -137.03,-184.13 1.21,-1.65 2.49,-3.12 3.77,-4.21 49.36,47.41 90.46,122.51 133.26,188.34 z m 280.62,96.22 -2.82,0.37 2.64,-2.05 z m 548.94,1017.73 c -19.31,-80.41 -78.42,-152.13 -126.68,-232.79 -17.82,-21.42 -13.2,-61.44 -37,-90.04 -24.16,-40.37 -30.74,-71.16 -49.07,-104.35 l 29.12,12.08 c -47.34,-45.29 -37.69,-101.87 -90.65,-142.39 5.61,-4.7 10.83,-21.19 4.86,-28.33 -24.22,-40.36 -65.39,-66.61 -78.18,-104.44 -24.37,-40.28 -54.29,-75.83 -67.14,-113.72 -6.01,-7.14 -1.23,-35.45 -7.65,-54.45 -12.43,-19.21 -25.71,-37.76 -38.83,-56.4 l 6.25,-1.63 c 12.17,13.93 23.74,28.74 32.11,46.21 24.88,52.16 55.59,111.41 85.98,158.78 78.77,116.2 139.92,234.87 200.81,353.48 12.27,26.06 18.91,56.89 31.13,82.93 31.17,82.9 101.92,157.04 98.08,232.46 0.31,11.84 12.15,26.14 6.86,42.6 z m -177.8,281.14 c -38.17,-94.96 -96.26,-187.3 -159.75,-254.34 -47.37,-56.95 -149.92,-248.57 -59.13,-276.15 -62.98,171.94 388.98,473.47 218.88,530.49 z m 384.27,681.92 c -15.39,-37.33 -31.03,-72.84 -58.78,-106.98 z m -18.49,-493.19 c 36.89,125.42 112.77,230.8 166.12,342.52 41.21,85.8 133.71,142.01 146.17,238.96 l -17.03,13.72 -0.09,-11.76 c -23.68,-22.66 -49.28,-35.63 -71.12,-52.99 l 1.49,4.9 -4.24,-7.13 c -14.36,-11.77 -26.99,-25.78 -36.23,-46.25 l -11.14,-29.95 c -62.57,-98.16 -129.31,-197.7 -159.87,-308.05 -24.03,-64.03 -31.01,-130.08 -55.14,-194.2 11.71,14.31 34.98,31.25 41.08,50.23"
         style="fill:#62369c;fill-opacity:1;fill-rule:nonzero;stroke:none"
         id="path14" />
      <path
         d="m 3281.99,2833.75 c 5.13,4.83 10.23,9.72 15.27,14.76 125.81,124.01 188.71,276.78 188.71,461.91 0,185.12 -62.9,337.89 -188.71,461.9 -124.02,124.02 -276.79,186.92 -458.32,186.92 -181.53,0 -336.1,-62.9 -460.11,-186.92 -124.02,-124.01 -186.92,-276.78 -186.92,-461.9 0,-185.13 62.9,-337.9 186.92,-461.91 5.04,-5.04 10.14,-9.93 15.28,-14.76 -5.14,-4.83 -10.24,-9.73 -15.28,-14.77 -124.02,-124.01 -186.92,-276.78 -186.92,-461.91 0,-185.12 62.9,-337.89 186.92,-461.9 124.01,-124.02 278.58,-185.13 460.11,-185.13 181.53,0 334.3,61.11 458.32,185.13 125.81,124.01 188.71,276.78 188.71,461.9 0,185.13 -62.9,337.9 -188.71,461.91 -5.04,5.04 -10.14,9.94 -15.27,14.77 z m 108.73,476.67 c 0,-133.21 -36.18,-247.7 -109.51,-343.52 v 687.03 c 73.33,-95.81 109.51,-210.31 109.51,-343.51 z m -202.97,440.07 v -842.7 c -101.22,65.16 -217.48,98.11 -348.81,98.11 -130.7,0 -247.4,-32.64 -348.81,-97.19 v 50.23 792.94 c 97.54,79.51 214.55,119.3 348.81,119.3 135.04,0 251.3,-40.26 348.81,-120.69 z m -50.48,-916.53 c -85.63,-54.68 -185.02,-82.51 -298.33,-82.51 -114.38,0 -213.97,27.72 -300.26,82.2 87.08,56.02 187.56,84.19 300.26,84.19 112.5,0 211.89,-28.07 298.33,-83.88 z m -853.7,476.46 c 0,134.37 38.07,249.71 113.1,346.04 v -694.24 c -75.75,96.75 -113.1,212.82 -113.1,348.2 z m 0,-953.35 c 0,134.38 38.07,249.72 113.1,346.05 v -694.25 c -75.75,96.76 -113.1,212.82 -113.1,348.2 z m 206.56,-442.33 v 844.37 c 101.41,-64.02 218.12,-95.73 348.81,-95.73 131.32,0 247.59,32.01 348.81,96.65 v -842.91 c -96.26,-78.93 -212.51,-119.01 -348.81,-119.01 -136.45,0 -251.97,39.27 -348.81,116.63 z m 791.08,98.82 v 687.03 c 73.33,-95.82 109.51,-210.31 109.51,-343.52 0,-133.2 -36.18,-247.69 -109.51,-343.51"
         style="fill:#ffffff;fill-opacity:1;fill-rule:nonzero;stroke:none"
         id="path16" />
      <path
         d="m 1879.99,4128.86 -141.02,186.95 -60.08,-45.33 22.86,-30.3 26.55,20.03 118.17,-156.64 z m 161.26,99.49 c 30.14,17 50.11,41.77 59.5,73.68 9.39,31.91 5.73,63.02 -11.11,92.87 -16.84,29.85 -41.57,49.07 -74.02,57.38 -32.33,8.76 -63.57,4.64 -93.71,-12.36 -30.14,-17 -49.82,-41.6 -59.05,-73.81 -9.38,-31.91 -5.72,-63.01 11.11,-92.86 16.84,-29.85 41.57,-49.07 73.74,-57.55 32.16,-8.47 63.4,-4.35 93.54,12.65 z m -131.28,65.2 c -11.56,20.48 -14.56,41.55 -8.73,63.35 5.83,21.8 19.13,38.57 39.32,49.95 20.19,11.39 41.13,13.94 62.8,7.66 21.68,-6.29 38.44,-19.6 50,-40.08 11.55,-20.48 14.26,-41.71 8.43,-63.51 -5.99,-21.52 -19,-38.11 -39.19,-49.5 -20.2,-11.39 -41.42,-14.11 -62.93,-8.11 -21.51,5.99 -37.98,19.46 -49.7,40.24 z m 495.81,338.61 c -32.97,-8.03 -58.26,-26.29 -75.95,-54.46 -17.36,-28.09 -21.95,-58.94 -13.76,-92.56 8.19,-33.63 26.53,-59.24 54.87,-76.2 28.66,-16.88 59.44,-21.14 92.41,-13.11 35.25,8.59 61.61,28.15 78.66,58.93 l -22.18,91.07 -94.99,-23.14 5.72,-23.5 69.53,16.94 14.31,-58.76 c -13.56,-19.56 -32.62,-32.15 -56.78,-38.04 -26.77,-6.52 -51.11,-3.11 -73.11,10.55 -22,13.66 -36.38,34.36 -42.98,61.46 -6.6,27.09 -3.27,51.76 9.98,74.01 13.26,22.24 33.23,36.79 59.99,43.31 24.49,5.96 47.29,3.22 68.48,-8.56 l 11.7,21.52 c -26.39,14.67 -54.89,18.1 -85.9,10.54 z m 240.17,-165.44 c 25.17,-21.75 54.69,-31.46 88.56,-29.47 33.88,1.99 62.05,15.09 84.17,39.61 22.46,24.54 32.48,54.41 30.45,88.95 -2.02,34.55 -15.46,62.7 -40.63,84.45 -24.83,21.76 -54.37,31.81 -88.24,29.82 -33.88,-1.99 -62.03,-15.42 -84.49,-39.96 -22.11,-24.52 -32.16,-54.06 -30.13,-88.6 2.03,-34.55 15.48,-63.04 40.31,-84.8 z m 8.6,157.34 c 17.37,19.53 39.62,30.25 67.13,31.87 27.5,1.61 50.86,-6.44 70.05,-23.82 19.19,-17.39 29.61,-40 31.24,-67.83 1.64,-27.84 -6.04,-51.85 -23.07,-71.36 -17.03,-19.51 -39.3,-29.9 -66.81,-31.52 -27.5,-1.61 -50.84,6.1 -70.36,23.47 -19.2,17.38 -29.63,40.33 -31.27,68.16 -1.63,27.84 6.07,51.52 23.09,71.03 z m 350.48,-186.81 c 37.01,-4.64 67.68,2.34 91.65,20.66 24.02,18.66 38.2,45.32 42.6,80.32 4.39,35 -2.76,64.34 -21.74,88.4 -18.66,24.01 -46.65,38.36 -83.66,43.01 l -74.67,9.38 -29.18,-232.35 z m -22.83,214.5 46.67,-5.86 c 63,-7.91 91.48,-48.06 84.41,-104.39 -7.04,-56.01 -44.56,-87.86 -107.23,-79.99 l -47,5.9 z m 242.04,-253.15 54.97,227.63 -25.47,6.15 -54.97,-227.62 z m 112.35,-30.27 67.25,177.15 66.56,-227.94 19.78,-7.52 83.11,218.93 -24.5,9.3 -66.53,-175.26 -65.71,225.46 -21.36,8.11 -83.1,-218.93 z m 241.96,-100.76 49.99,37.77 98.13,-57.15 -8.18,-62.11 24.39,-14.2 32.19,252.24 -17.42,10.14 -203.48,-152.49 z m 167.36,126.49 -15.78,-119.89 -80.71,47 z m 232.67,-330.02 c 15.44,0.46 27.68,13.85 26.52,29.02 -0.69,15.19 -13.09,26.52 -28.52,26.06 -14.97,-0.43 -27.21,-13.83 -26.52,-29.02 1.16,-15.16 13.56,-26.5 28.52,-26.06 z m 157.94,-274.89 186.94,141.02 -45.32,60.08 -30.31,-22.86 20.03,-26.55 -156.64,-118.17 z m 98.97,-161.54 c 16.64,-30.34 41.17,-50.61 72.96,-60.38 31.8,-9.77 62.95,-6.48 93,9.99 30.04,16.48 49.56,40.98 58.26,73.34 9.15,32.22 5.41,63.5 -11.23,93.84 -16.64,30.35 -41,50.32 -73.1,59.93 -31.79,9.77 -62.94,6.48 -92.99,-10 -30.05,-16.47 -49.57,-40.97 -58.42,-73.03 -8.86,-32.06 -5.12,-63.35 11.52,-93.69 z m 66.77,130.49 c 20.62,11.31 41.72,14.06 63.45,7.97 21.73,-6.09 38.33,-19.59 49.48,-39.92 11.15,-20.33 13.45,-41.29 6.9,-62.89 -6.55,-21.6 -20.05,-38.2 -40.67,-49.51 -20.63,-11.3 -41.88,-13.77 -63.62,-7.67 -21.43,6.25 -37.87,19.46 -49.02,39.79 -11.15,20.32 -13.61,41.58 -7.35,63.02 6.25,21.43 19.92,37.74 40.83,49.21 z m 335.52,-495.7 c -8.03,32.96 -26.29,58.25 -54.46,75.94 -28.09,17.37 -58.95,21.95 -92.57,13.77 -33.62,-8.19 -59.24,-26.54 -76.19,-54.87 -16.88,-28.67 -21.14,-59.44 -13.11,-92.41 8.59,-35.25 28.15,-61.61 58.93,-78.67 l 91.07,22.19 -23.14,94.99 -23.5,-5.73 16.93,-69.53 -58.75,-14.31 c -19.56,13.57 -32.16,32.63 -38.04,56.78 -6.52,26.77 -3.11,51.11 10.55,73.12 13.66,22 34.36,36.37 61.45,42.97 27.1,6.6 51.77,3.28 74.01,-9.98 22.25,-13.25 36.8,-33.22 43.32,-59.99 5.96,-24.48 3.22,-47.28 -8.57,-68.48 l 21.53,-11.7 c 14.66,26.4 18.09,54.9 10.54,85.91 z m -166.44,-240.33 c -21.74,-25.17 -31.45,-54.68 -29.46,-88.56 1.99,-33.87 15.08,-62.05 39.6,-84.16 24.54,-22.46 54.41,-32.48 88.96,-30.46 34.54,2.03 62.7,15.46 84.44,40.63 21.77,24.84 31.81,54.37 29.82,88.25 -1.99,33.87 -15.42,62.03 -39.96,84.48 -24.52,22.12 -54.05,32.17 -88.6,30.14 -34.54,-2.03 -63.03,-15.48 -84.8,-40.32 z m 157.34,-8.6 c 19.53,-17.36 30.26,-39.62 31.87,-67.12 1.62,-27.5 -6.43,-50.86 -23.82,-70.05 -17.38,-19.2 -39.99,-29.61 -67.83,-31.25 -27.84,-1.63 -51.85,6.05 -71.36,23.08 -19.51,17.02 -29.9,39.3 -31.51,66.8 -1.62,27.5 6.1,50.84 23.46,70.37 17.39,19.2 40.33,29.63 68.17,31.26 27.84,1.64 51.51,-6.06 71.02,-23.09 z m -187.82,-350.45 c -4.65,-37 2.33,-67.67 20.66,-91.64 18.65,-24.02 45.31,-38.2 80.31,-42.6 35.01,-4.39 64.35,2.76 88.4,21.74 24.02,18.66 38.37,46.65 43.02,83.66 l 9.37,74.67 -232.34,29.18 z m 214.5,22.84 -5.86,-46.67 c -7.92,-63 -48.06,-91.48 -104.4,-84.41 -56,7.04 -87.86,44.56 -79.99,107.23 l 5.9,47 z m -253.82,-241.92 226.92,-57.81 6.47,25.39 -226.92,57.82 z m -29.92,-112.52 176.29,-69.48 -228.77,-63.68 -7.76,-19.69 217.86,-85.87 9.6,24.38 -174.41,68.75 226.28,62.85 8.38,21.25 -217.86,85.87 z m -102.55,-241.2 37.76,-49.98 -57.14,-98.14 -62.11,8.18 -14.2,-24.39 252.23,-32.19 10.15,17.42 -152.49,203.49 z m 126.48,-167.35 -119.89,15.77 47,80.71 z m -331.58,-232.51 c 0.26,-15.44 13.5,-27.85 28.68,-26.88 15.2,0.5 26.68,12.76 26.42,28.2 -0.25,14.97 -13.49,27.37 -28.69,26.87 -15.18,-0.97 -26.67,-13.23 -26.41,-28.19 z M 3789,1533.72 l 141.02,-186.95 60.08,45.33 -22.86,30.3 -26.55,-20.03 -118.17,156.64 z m -161.97,-98.3 c -30.35,-16.64 -50.62,-41.17 -60.39,-72.96 -9.77,-31.8 -6.48,-62.95 10,-93 16.48,-30.05 40.97,-49.56 73.33,-58.26 32.22,-9.15 63.51,-5.41 93.85,11.23 30.34,16.64 50.32,41 59.92,73.09 9.77,31.8 6.49,62.95 -9.99,93 -16.48,30.05 -40.98,49.56 -73.04,58.42 -32.06,8.86 -63.34,5.11 -93.68,-11.52 z m 130.49,-66.77 c 11.3,-20.62 14.06,-41.72 7.97,-63.45 -6.1,-21.73 -19.6,-38.34 -39.92,-49.48 -20.33,-11.15 -41.29,-13.45 -62.89,-6.9 -21.6,6.55 -38.2,20.05 -49.51,40.67 -11.31,20.62 -13.77,41.88 -7.68,63.61 6.25,21.44 19.46,37.88 39.79,49.03 20.33,11.14 41.58,13.6 63.02,7.35 21.44,-6.25 37.75,-19.92 49.22,-40.83 z M 3258.5,1033.89 c 33.06,7.63 58.56,25.59 76.59,53.55 17.7,27.88 22.65,58.68 14.87,92.4 -7.79,33.71 -25.83,59.55 -53.96,76.84 -28.46,17.22 -59.18,21.85 -92.24,14.21 -35.36,-8.16 -61.95,-27.41 -79.37,-57.98 l 21.1,-91.33 95.26,22 -5.45,23.57 -69.72,-16.11 -13.61,58.93 c 13.79,19.39 33.01,31.76 57.23,37.35 26.84,6.2 51.15,2.51 72.98,-11.42 21.84,-13.92 35.97,-34.79 42.24,-61.96 6.28,-27.17 2.66,-51.8 -10.86,-73.89 -13.52,-22.08 -33.67,-36.39 -60.51,-42.59 -24.55,-5.67 -47.31,-2.65 -68.37,9.38 l -11.96,-21.38 c 26.22,-14.98 54.68,-18.75 85.78,-11.57 z m -237.99,166.83 c -24.9,22.05 -54.3,32.12 -88.19,30.54 -33.9,-1.58 -62.23,-14.33 -84.65,-38.58 -22.75,-24.27 -33.13,-54.01 -31.52,-88.58 1.6,-34.57 14.69,-62.88 39.6,-84.93 24.57,-22.061 53.98,-32.471 87.88,-30.889 33.89,1.578 62.21,14.669 84.96,38.929 22.41,24.25 32.82,53.66 31.21,88.23 -1.61,34.57 -14.72,63.22 -39.29,85.28 z M 3010,1043.5 c -17.6,-19.32 -39.98,-29.78 -67.5,-31.06 -27.52,-1.28 -50.78,7.06 -69.76,24.67 -18.98,17.62 -29.12,40.35 -30.42,68.21 -1.29,27.85 6.67,51.77 23.94,71.07 17.26,19.3 39.66,29.43 67.18,30.71 27.52,1.28 50.76,-6.72 70.08,-24.32 18.98,-17.62 29.14,-40.69 30.43,-68.54 1.3,-27.86 -6.68,-51.44 -23.95,-70.74 z m -348.2,189.92 c -37,4.65 -67.68,-2.33 -91.65,-20.65 -24.01,-18.66 -38.2,-45.32 -42.59,-80.32 -4.4,-35.01 2.75,-64.35 21.74,-88.4 18.65,-24.02 46.65,-38.37 83.65,-43.02 l 74.67,-9.37 29.18,232.34 z m 22.83,-214.5 -46.67,5.86 c -63,7.92 -91.48,48.06 -84.4,104.4 7.03,56 44.55,87.86 107.22,79.99 l 47.01,-5.9 z m -241.78,254.5 -57.82,-226.92 25.39,-6.47 57.82,226.92 z m -112.32,30.59 -69.48,-176.29 -63.67,228.77 -19.69,7.76 -85.87,-217.86 24.38,-9.61 68.74,174.42 62.85,-226.28 21.26,-8.38 85.86,217.86 z m -241.36,102.41 -50.45,-37.13 -97.41,58.38 8.96,62 -24.2,14.51 -35.38,-251.81 17.29,-10.36 205.4,149.9 z m -168.93,-124.36 17.28,119.68 80.12,-48.02 z m -229.65,331.37 c -15.44,-0.27 -27.84,-13.51 -26.87,-28.69 0.49,-15.19 12.75,-26.68 28.19,-26.41 14.97,0.25 27.37,13.49 26.88,28.68 -0.97,15.18 -13.23,26.67 -28.2,26.42 z m -155.71,275.77 -188.64,-138.75 44.59,-60.63 30.58,22.5 -19.71,26.79 158.06,116.26 z m -97.84,162.24 c -16.64,30.35 -41.17,50.62 -72.96,60.38 -31.8,9.77 -62.95,6.49 -93,-9.99 -30.04,-16.48 -49.56,-40.97 -58.26,-73.33 -9.15,-32.22 -5.41,-63.51 11.23,-93.85 16.64,-30.34 41,-50.32 73.09,-59.92 31.8,-9.77 62.95,-6.49 93,9.99 30.05,16.48 49.56,40.97 58.42,73.04 8.86,32.06 5.12,63.34 -11.52,93.68 z m -66.77,-130.49 c -20.62,-11.3 -41.72,-14.06 -63.45,-7.97 -21.73,6.09 -38.33,19.6 -49.48,39.92 -11.15,20.33 -13.45,41.29 -6.9,62.89 6.55,21.6 20.05,38.2 40.67,49.51 20.63,11.31 41.88,13.77 63.62,7.68 21.43,-6.26 37.87,-19.46 49.02,-39.79 11.14,-20.33 13.61,-41.58 7.35,-63.02 -6.25,-21.44 -19.92,-37.75 -40.83,-49.22 z m -333.34,499.57 c 7.64,-33.06 25.6,-58.57 53.55,-76.6 27.88,-17.69 58.68,-22.65 92.4,-14.86 33.72,7.78 59.55,25.82 76.85,53.95 17.22,28.46 21.84,59.18 14.21,92.25 -8.17,35.35 -27.41,61.94 -57.99,79.36 l -91.33,-21.09 22,-95.26 23.57,5.44 -16.1,69.73 58.92,13.6 c 19.4,-13.79 31.76,-33 37.36,-57.23 6.2,-26.84 2.5,-51.14 -11.42,-72.98 -13.92,-21.83 -34.8,-35.96 -61.97,-42.24 -27.17,-6.27 -51.8,-2.65 -73.88,10.87 -22.09,13.52 -36.4,33.66 -42.6,60.5 -5.67,24.55 -2.65,47.32 9.38,68.37 l -21.38,11.96 c -14.98,-26.22 -18.75,-54.67 -11.57,-85.77 z m 167.83,238.12 c 22.05,24.9 32.12,54.3 30.54,88.19 -1.58,33.9 -14.33,62.23 -38.58,84.65 -24.27,22.75 -54.01,33.13 -88.58,31.52 -34.57,-1.6 -62.88,-14.69 -84.93,-39.6 -22.07,-24.57 -32.468,-53.98 -30.89,-87.88 1.578,-33.89 14.67,-62.21 38.93,-84.96 24.25,-22.41 53.66,-32.82 88.23,-31.21 34.57,1.61 63.22,14.72 85.28,39.29 z m -157.22,10.51 c -19.32,17.6 -29.78,39.98 -31.06,67.5 -1.28,27.52 7.06,50.78 24.67,69.76 17.62,18.98 40.35,29.12 68.21,30.42 27.85,1.29 51.77,-6.67 71.07,-23.94 19.3,-17.26 29.42,-39.66 30.71,-67.18 1.28,-27.52 -6.72,-50.76 -24.32,-70.08 -17.62,-18.98 -40.69,-29.14 -68.54,-30.43 -27.86,-1.3 -51.44,6.68 -70.74,23.95 z m 190.53,348.21 c 5.11,36.94 -1.49,67.7 -19.52,91.9 -18.35,24.24 -44.84,38.75 -79.78,43.58 -34.95,4.83 -64.38,-1.96 -88.66,-20.64 -24.25,-18.36 -38.94,-46.18 -44.05,-83.12 l -10.302,-74.55 231.972,-32.05 z m -214.76,-20.18 6.44,46.59 c 8.69,62.9 49.18,90.89 105.43,83.11 55.91,-7.72 87.3,-45.64 78.66,-108.21 l -6.49,-46.92 z m 255.78,238.96 -226.92,57.82 -6.47,-25.4 226.92,-57.82 z m 31.26,112.09 -176.29,69.49 228.77,63.67 7.76,19.69 -217.86,85.87 -9.61,-24.38 174.42,-68.75 -226.28,-62.85 -8.38,-21.25 217.86,-85.87 z m 103.23,240.96 -37.13,50.46 58.38,97.4 62,-8.96 14.51,24.21 -251.81,35.37 -10.36,-17.29 149.9,-205.4 z m -124.36,168.94 119.68,-17.29 -48.02,-80.11 z m 331.6,228.49 c -0.46,15.43 -13.85,27.67 -29.02,26.51 -15.19,-0.68 -26.52,-13.08 -26.06,-28.52 0.43,-14.96 13.83,-27.2 29.01,-26.52 15.17,1.16 26.5,13.56 26.07,28.53"
         style="fill:#ffffff;fill-opacity:1;fill-rule:nonzero;stroke:none"
         id="path18" />
    </g>
  </g>
</svg>
